<svg version="1.1" id="Layer_1" xmlns="http://www.w3.org/2000/svg" xmlns:xlink="http://www.w3.org/1999/xlink" x="0px" y="0px"
	 width="100%" viewBox="0 0 640 640" enable-background="new 0 0 640 640" xml:space="preserve">
<path fill="#FFCC65" opacity="1.000000" stroke="none" 
	d="
M141.000000,641.000000 
	C94.342377,641.000000 47.684753,641.000000 1.020346,641.000000 
	C1.013564,427.717041 1.013564,214.434097 1.013564,1.075572 
	C214.241592,1.075572 427.483215,1.075572 640.862427,1.075572 
	C640.862427,214.333267 640.862427,427.666626 640.862427,641.000000 
	C594.575439,641.000000 548.251587,641.000000 501.463867,640.531372 
	C500.947357,630.364624 500.894745,620.666504 500.898010,610.504761 
	C501.228088,596.862915 501.288025,583.707153 496.843079,570.654907 
	C495.439301,566.738464 494.292999,563.077087 492.648163,559.655212 
	C487.368225,548.671082 480.834900,538.582642 470.898254,530.670288 
	C467.497223,527.933167 464.247467,525.494507 460.782776,522.793823 
	C448.724579,513.942688 434.810272,510.462708 420.770691,506.360291 
	C404.017395,501.148346 387.574524,496.102112 371.089172,490.585449 
	C371.014465,480.745514 370.982178,471.376007 371.270386,461.846100 
	C395.482391,452.248383 415.243561,437.244568 431.210815,417.212982 
	C442.204010,403.421509 450.266571,388.076019 455.457336,371.028931 
	C477.032043,370.400085 494.357910,357.103210 499.357269,337.655212 
	C504.545258,317.473389 496.232452,297.105286 477.950684,286.878815 
	C472.832977,284.016083 466.744904,282.888092 461.060303,280.499634 
	C460.996674,276.204681 461.064270,272.371582 460.938904,268.544769 
	C459.621063,228.322281 444.903625,193.850311 414.600464,167.257477 
	C373.609589,131.285538 326.304962,121.599510 274.657990,139.185669 
	C232.810699,153.434937 204.647552,182.696548 189.050522,224.023453 
	C182.118347,242.391434 180.536423,261.543121 180.536484,281.082092 
	C177.756241,281.800171 175.327087,282.361420 172.920593,283.007233 
	C155.237061,287.752747 141.316742,305.597626 141.005798,323.894867 
	C140.547379,350.870483 159.488861,370.297424 187.008911,371.426331 
	C188.051544,374.791687 188.978500,377.808899 190.090103,380.756409 
	C197.543442,400.520111 208.892517,417.793701 224.173218,432.311676 
	C237.794983,445.253510 253.430145,455.244324 271.026245,462.473145 
	C270.964630,472.312866 270.916565,481.684753 270.510132,491.134888 
	C253.742630,496.349304 237.333496,501.485504 220.527649,506.686523 
	C206.480530,510.724274 192.638092,514.233704 180.644318,523.086731 
	C177.186890,525.782959 174.049896,528.371033 170.610016,531.095764 
	C158.217392,542.154785 149.738297,555.356262 145.063004,571.400269 
	C140.599197,584.535950 140.706360,597.735535 141.107407,611.436523 
	C141.037979,621.603149 141.018982,631.301575 141.000000,641.000000 
z"/>
<path fill="#87C776" opacity="1.000000" stroke="none" 
	d="
M500.842163,610.968384 
	C500.894745,620.666504 500.947357,630.364624 501.000000,640.531372 
	C487.979095,641.000000 474.958221,641.000000 461.468628,640.531372 
	C461.024841,630.403809 461.049683,620.744934 461.534668,611.058105 
	C474.943939,611.009521 487.893036,610.988953 500.842163,610.968384 
z"/>
<path fill="#75A967" opacity="1.000000" stroke="none" 
	d="
M461.074524,611.086060 
	C461.049683,620.744934 461.024841,630.403809 461.000000,640.531372 
	C447.979095,641.000000 434.958221,641.000000 421.468658,640.531372 
	C421.002716,630.376770 421.005432,620.690796 421.475891,611.003357 
	C434.939423,610.975037 447.935150,610.948181 460.966980,610.962402 
	C461.003052,611.003418 461.074554,611.086060 461.074524,611.086060 
z"/>
<path fill="#87C776" opacity="1.000000" stroke="none" 
	d="
M421.008148,611.004883 
	C421.005432,620.690796 421.002716,630.376770 421.000000,640.531372 
	C407.979095,641.000000 394.958221,641.000000 381.468658,640.531372 
	C381.024841,630.403809 381.049713,620.744934 381.534668,611.058105 
	C394.996918,611.015625 407.999054,611.001038 421.001587,610.991577 
	C421.002014,610.996704 421.008148,611.004883 421.008148,611.004883 
z"/>
<path fill="#75A967" opacity="1.000000" stroke="none" 
	d="
M381.074554,611.086060 
	C381.049713,620.744934 381.024841,630.403809 381.000000,640.531372 
	C367.979095,641.000000 354.958221,641.000000 341.468658,640.531372 
	C340.975037,630.403931 340.950104,620.745239 340.961304,611.044678 
	C340.997498,611.002808 341.069092,610.921326 341.529480,610.947754 
	C354.970215,610.956543 367.950562,610.938965 380.966980,610.962402 
	C381.003052,611.003418 381.074554,611.086060 381.074554,611.086060 
z"/>
<path fill="#87C776" opacity="1.000000" stroke="none" 
	d="
M340.925140,611.086487 
	C340.950104,620.745239 340.975037,630.403931 341.000000,640.531372 
	C327.979095,641.000000 314.958221,641.000000 301.468658,640.531372 
	C301.024872,630.403809 301.049713,620.744934 301.534668,611.058105 
	C314.971588,611.048889 327.948364,611.067688 340.925140,611.086487 
z"/>
<path fill="#75A967" opacity="1.000000" stroke="none" 
	d="
M301.074554,611.086060 
	C301.049713,620.744934 301.024872,630.403809 301.000000,640.531372 
	C287.979095,641.000000 274.958221,641.000000 261.468628,640.531372 
	C261.002686,630.376770 261.005402,620.690796 261.475891,611.003418 
	C274.939423,610.975037 287.935150,610.948181 300.966980,610.962402 
	C301.003052,611.003418 301.074554,611.086060 301.074554,611.086060 
z"/>
<path fill="#87C776" opacity="1.000000" stroke="none" 
	d="
M261.008118,611.004883 
	C261.005402,620.690796 261.002686,630.376770 261.000000,640.531372 
	C247.979111,641.000000 234.958206,641.000000 221.468658,640.531372 
	C221.024857,630.403809 221.049698,620.744995 221.534683,611.058105 
	C234.996933,611.015564 247.999039,611.001038 261.001587,610.991577 
	C261.002014,610.996704 261.008148,611.004883 261.008118,611.004883 
z"/>
<path fill="#75A967" opacity="1.000000" stroke="none" 
	d="
M221.074554,611.086121 
	C221.049698,620.744995 221.024857,630.403809 221.000000,640.531372 
	C207.979111,641.000000 194.958206,641.000000 181.468658,640.531372 
	C180.975143,630.403809 180.950302,620.744934 180.961197,611.044739 
	C180.996948,611.003418 181.069077,610.921326 181.529449,610.947754 
	C194.970184,610.956543 207.950546,610.938965 220.966965,610.962402 
	C221.003036,611.003479 221.074554,611.086121 221.074554,611.086121 
z"/>
<path fill="#87C776" opacity="1.000000" stroke="none" 
	d="
M180.925446,611.086060 
	C180.950302,620.744934 180.975143,630.403809 181.000000,640.531372 
	C167.979111,641.000000 154.958206,641.000000 141.468658,641.000000 
	C141.018982,631.301575 141.037979,621.603149 141.563904,611.445435 
	C155.022354,611.019470 167.973907,611.052795 180.925446,611.086060 
z"/>
<path fill="#C88A76" opacity="1.000000" stroke="none" 
	d="
M271.039764,462.005280 
	C253.430145,455.244324 237.794983,445.253510 224.173218,432.311676 
	C208.892517,417.793701 197.543442,400.520111 190.090103,380.756409 
	C188.978500,377.808899 188.051544,374.791687 186.952209,371.045868 
	C184.910706,357.527069 182.130753,344.827393 181.224686,331.995422 
	C180.242126,318.079926 181.004913,304.041229 181.333801,289.956116 
	C192.986389,275.684296 200.916000,259.574768 208.099121,243.077774 
	C212.662552,232.597198 216.826126,221.942520 220.905594,212.007507 
	C287.847260,237.825470 354.328156,237.851303 421.172791,211.999786 
	C421.501862,212.890884 421.945740,214.127548 422.413757,215.355011 
	C429.930908,235.071381 436.897034,255.024460 445.213470,274.397827 
	C449.143616,283.553223 455.661682,291.597656 460.994507,300.602295 
	C460.948944,324.554504 462.319336,348.169312 455.021393,371.045898 
	C450.266571,388.076019 442.204010,403.421509 431.210815,417.212982 
	C415.243561,437.244568 395.482391,452.248383 370.901703,461.905029 
	C352.956451,468.231445 335.186554,471.497803 316.874512,470.928711 
	C301.156219,470.440216 285.902954,467.114319 271.039764,462.005280 
M313.934479,430.478058 
	C330.975922,432.371765 346.498749,427.733978 361.174377,419.477386 
	C364.932068,417.363312 366.317688,413.972565 366.040955,409.848145 
	C365.766998,405.765076 363.533569,402.573181 359.705811,401.815216 
	C356.710602,401.222076 353.235413,401.846130 350.227203,402.762360 
	C342.649994,405.070282 335.388947,408.726837 327.686249,410.242310 
	C314.726776,412.791992 302.787750,408.516724 291.352814,402.512573 
	C285.957764,399.679840 280.137024,401.494690 277.522522,406.240112 
	C274.673431,411.411285 276.324799,417.089569 282.015533,420.191895 
	C291.706757,425.475098 301.915070,429.353027 313.934479,430.478058 
M287.804810,292.631714 
	C287.113983,291.121613 286.494507,289.573822 285.720856,288.107422 
	C280.254639,277.746948 270.506683,272.628815 258.389343,273.715118 
	C246.500122,274.781006 237.634506,281.820190 234.147827,292.902740 
	C232.974731,296.631470 233.507278,299.827026 236.876465,302.148865 
	C239.875137,304.215332 243.032150,303.987762 245.622711,301.687408 
	C247.150864,300.330414 248.158859,298.239838 249.020966,296.309540 
	C251.212112,291.403412 254.792480,288.874054 260.217194,288.665802 
	C266.946350,288.407471 271.097870,291.500366 273.598053,297.644318 
	C275.643768,302.671448 279.234833,304.512360 283.336395,302.976562 
	C287.812134,301.300629 289.242096,297.935608 287.804810,292.631714 
M384.884277,273.811890 
	C369.540222,272.569916 357.775940,280.011658 354.030579,293.329041 
	C352.832031,297.590729 354.435974,301.344513 358.108154,302.871979 
	C361.681152,304.358185 365.797791,302.787567 367.828674,299.096222 
	C368.386292,298.082703 368.727814,296.952698 369.215424,295.897888 
	C371.371399,291.234131 374.957886,288.906494 380.163300,288.663879 
	C387.191223,288.336304 391.234741,291.786163 393.795502,298.026428 
	C395.779297,302.860840 399.623260,304.480896 403.749207,302.884338 
	C407.790497,301.320557 409.493561,297.281982 407.700256,292.504852 
	C403.856873,282.266449 396.941925,275.498505 384.884277,273.811890 
M348.031555,351.422791 
	C348.236877,347.645325 346.903076,344.822083 342.920837,344.085724 
	C338.412262,343.252075 334.913757,344.881226 333.496155,349.376251 
	C331.554169,355.534027 327.384369,357.957306 321.173523,358.112030 
	C314.748627,358.272064 311.040466,354.977692 308.599976,349.486389 
	C306.503540,344.769196 302.415619,342.879730 298.144501,344.473083 
	C294.157410,345.960480 292.591553,349.994293 294.591522,354.940796 
	C299.066193,366.007629 307.060547,374.480225 324.871887,373.045074 
	C335.899750,372.156494 345.345886,363.860626 348.031555,351.422791 
z"/>
<path fill="#372D47" opacity="1.000000" stroke="none" 
	d="
M461.007233,300.145416 
	C455.661682,291.597656 449.143616,283.553223 445.213470,274.397827 
	C436.897034,255.024460 429.930908,235.071381 422.413757,215.355011 
	C421.945740,214.127548 421.501862,212.890884 421.172791,211.999786 
	C354.328156,237.851303 287.847260,237.825470 220.905594,212.007507 
	C216.826126,221.942520 212.662552,232.597198 208.099121,243.077774 
	C200.916000,259.574768 192.986389,275.684296 181.329346,289.499268 
	C180.964447,286.416504 180.931259,283.690491 180.898071,280.964447 
	C180.536423,261.543121 182.118347,242.391434 189.050522,224.023453 
	C204.647552,182.696548 232.810699,153.434937 274.657990,139.185669 
	C326.304962,121.599510 373.609589,131.285538 414.600464,167.257477 
	C444.903625,193.850311 459.621063,228.322281 460.938904,268.544769 
	C461.064270,272.371582 460.996674,276.204681 461.011169,280.966309 
	C461.004852,287.980286 461.006042,294.062866 461.007233,300.145416 
z"/>
<path fill="#B16A5B" opacity="1.000000" stroke="none" 
	d="
M271.026245,462.473145 
	C285.902954,467.114319 301.156219,470.440216 316.874512,470.928711 
	C335.186554,471.497803 352.956451,468.231445 370.581238,462.065430 
	C370.982178,471.376007 371.014465,480.745514 371.048096,491.047363 
	C371.029694,501.972809 371.137512,511.968170 370.965424,521.958679 
	C370.508789,548.467346 348.483459,570.472229 322.039795,570.972717 
	C294.503296,571.493896 271.435242,549.171753 271.031799,521.531799 
	C270.883514,511.374786 270.917603,501.215118 270.868500,491.056641 
	C270.916565,481.684753 270.964630,472.312866 271.026245,462.473145 
z"/>
<path fill="#6EBB58" opacity="1.000000" stroke="none" 
	d="
M270.510132,491.134888 
	C270.917603,501.215118 270.883514,511.374786 271.031799,521.531799 
	C271.435242,549.171753 294.503296,571.493896 322.039795,570.972717 
	C348.483459,570.472229 370.508789,548.467346 370.965424,521.958679 
	C371.137512,511.968170 371.029694,501.972809 371.090576,491.517761 
	C387.574524,496.102112 404.017395,501.148346 420.751221,506.867981 
	C421.028442,515.356445 421.014771,523.171509 420.532410,530.990967 
	C411.602966,530.997681 403.138916,530.878418 394.684479,531.109985 
	C393.090790,531.153687 390.612823,532.219543 390.111816,533.451599 
	C386.822662,541.540344 383.964081,549.804138 380.684082,558.186218 
	C376.945038,562.563293 373.486877,566.764954 369.741882,571.140625 
	C362.433563,578.367920 354.107178,583.363770 344.740112,586.555908 
	C341.853241,587.539734 340.895874,589.149841 340.963715,592.035889 
	C341.111694,598.328369 341.046906,604.625854 341.069092,610.921326 
	C341.069092,610.921326 340.997498,611.002808 340.961304,611.044678 
	C327.948364,611.067688 314.971588,611.048889 301.534668,611.058105 
	C301.074554,611.086060 301.003052,611.003418 300.990265,610.502991 
	C300.984619,604.194824 300.856567,598.382507 301.051544,592.581055 
	C301.161896,589.297913 300.095612,587.574097 296.852081,586.335571 
	C292.242828,584.575745 287.800446,582.234619 283.564667,579.680847 
	C279.207733,577.054138 275.184509,573.873840 270.948364,570.603516 
	C267.599365,566.184814 264.317230,562.098267 260.971069,557.654785 
	C258.020416,549.884583 254.721466,542.595581 252.434006,535.001831 
	C251.405151,531.586304 249.985596,530.922363 246.957886,530.960938 
	C238.306198,531.071167 229.652115,530.991455 220.999420,530.518677 
	C220.974716,522.241150 220.949539,514.431396 220.924362,506.621674 
	C237.333496,501.485504 253.742630,496.349304 270.510132,491.134888 
z"/>
<path fill="#B16B5B" opacity="1.000000" stroke="none" 
	d="
M180.536484,281.082092 
	C180.931259,283.690491 180.964447,286.416504 181.002106,289.599396 
	C181.004913,304.041229 180.242126,318.079926 181.224686,331.995422 
	C182.130753,344.827393 184.910706,357.527069 186.921982,370.665466 
	C159.488861,370.297424 140.547379,350.870483 141.005798,323.894867 
	C141.316742,305.597626 155.237061,287.752747 172.920593,283.007233 
	C175.327087,282.361420 177.756241,281.800171 180.536484,281.082092 
z"/>
<path fill="#B16B5B" opacity="1.000000" stroke="none" 
	d="
M460.994507,300.602295 
	C461.006042,294.062866 461.004852,287.980286 461.052795,281.431030 
	C466.744904,282.888092 472.832977,284.016083 477.950684,286.878815 
	C496.232452,297.105286 504.545258,317.473389 499.357269,337.655212 
	C494.357910,357.103210 477.032043,370.400085 455.457336,371.028931 
	C462.319336,348.169312 460.948944,324.554504 460.994507,300.602295 
z"/>
<path fill="#6EBB58" opacity="1.000000" stroke="none" 
	d="
M180.961197,611.044800 
	C167.973907,611.052795 155.022354,611.019470 141.614319,610.977295 
	C140.706360,597.735535 140.599197,584.535950 145.517456,571.391602 
	C157.727829,571.015747 169.364426,571.014587 181.000641,571.480713 
	C181.023193,584.939026 181.046143,597.930176 181.069077,610.921326 
	C181.069077,610.921326 180.996948,611.003418 180.961197,611.044800 
z"/>
<path fill="#6EBB58" opacity="1.000000" stroke="none" 
	d="
M500.898010,610.504761 
	C487.893036,610.988953 474.943939,611.009521 461.534668,611.058105 
	C461.074554,611.086060 461.003052,611.003418 460.990265,610.502930 
	C460.984619,597.006104 460.991791,584.009827 461.467651,571.009766 
	C473.581665,571.010559 485.226990,571.015076 496.872284,571.019531 
	C501.288025,583.707153 501.228088,596.862915 500.898010,610.504761 
z"/>
<path fill="#87C776" opacity="1.000000" stroke="none" 
	d="
M496.843079,570.654907 
	C485.226990,571.015076 473.581665,571.010559 461.467072,571.003662 
	C460.997772,571.001282 460.991760,570.995117 460.994476,570.527039 
	C460.995392,557.040955 460.993591,544.022888 460.994659,531.000977 
	C460.997559,530.997131 460.998840,530.986511 461.453979,530.990967 
	C464.955902,530.986511 468.002686,530.977600 471.049469,530.968750 
	C480.834900,538.582642 487.368225,548.671082 492.648163,559.655212 
	C494.292999,563.077087 495.439301,566.738464 496.843079,570.654907 
z"/>
<path fill="#87C776" opacity="1.000000" stroke="none" 
	d="
M181.001038,571.013489 
	C169.364426,571.014587 157.727829,571.015747 145.636780,571.025574 
	C149.738297,555.356262 158.217392,542.154785 171.070953,531.105286 
	C174.890244,530.980896 177.945679,530.983704 181.001740,530.991821 
	C181.002365,530.997131 181.008255,531.004883 181.005554,531.472961 
	C181.004654,544.959045 181.006454,557.977112 181.005219,570.998169 
	C181.002167,571.001221 181.001038,571.013489 181.001038,571.013489 
z"/>
<path fill="#579646" opacity="1.000000" stroke="none" 
	d="
M421.001099,530.986511 
	C421.014771,523.171509 421.028442,515.356445 421.061646,507.033691 
	C434.810272,510.462708 448.724579,513.942688 460.780151,523.233032 
	C460.994537,526.285034 460.996704,528.635803 460.998840,530.986511 
	C460.998840,530.986511 460.997559,530.997131 460.526917,530.999512 
	C447.040253,531.002869 434.024261,531.003845 421.005249,531.001831 
	C421.002228,530.998718 421.001068,530.986511 421.001099,530.986511 
z"/>
<path fill="#579646" opacity="1.000000" stroke="none" 
	d="
M220.527649,506.686523 
	C220.949539,514.431396 220.974716,522.241150 220.998856,530.524902 
	C220.997833,530.998901 220.991745,531.004883 220.523926,531.003418 
	C207.040161,531.002869 194.024216,531.003906 181.008255,531.004883 
	C181.008255,531.004883 181.002365,530.997131 181.001328,530.548096 
	C180.988449,527.725586 180.976608,525.352051 180.964783,522.978577 
	C192.638092,514.233704 206.480530,510.724274 220.527649,506.686523 
z"/>
<path fill="#6EBB58" opacity="1.000000" stroke="none" 
	d="
M461.453979,530.990967 
	C460.996704,528.635803 460.994537,526.285034 460.995056,523.495117 
	C464.247467,525.494507 467.497223,527.933167 470.898254,530.670288 
	C468.002686,530.977600 464.955902,530.986511 461.453979,530.990967 
z"/>
<path fill="#6EBB58" opacity="1.000000" stroke="none" 
	d="
M180.644318,523.086731 
	C180.976608,525.352051 180.988449,527.725586 181.000702,530.542786 
	C177.945679,530.983704 174.890244,530.980896 171.373840,530.968567 
	C174.049896,528.371033 177.186890,525.782959 180.644318,523.086731 
z"/>
<path fill="#579646" opacity="1.000000" stroke="none" 
	d="
M460.998352,571.007385 
	C460.991791,584.009827 460.984619,597.006104 460.954193,610.461914 
	C447.935150,610.948181 434.939423,610.975037 421.475891,611.003357 
	C421.008148,611.004883 421.002014,610.996704 421.001160,610.524414 
	C421.000580,597.039246 421.000824,584.026367 421.001648,571.007385 
	C421.002228,571.001282 421.008240,570.995117 421.476074,570.996582 
	C434.959839,570.997070 447.975800,570.996094 460.991760,570.995117 
	C460.991760,570.995117 460.997772,571.001282 460.998352,571.007385 
z"/>
<path fill="#6EBB58" opacity="1.000000" stroke="none" 
	d="
M421.001068,571.013489 
	C421.000824,584.026367 421.000580,597.039246 421.000732,610.519287 
	C407.999054,611.001038 394.996918,611.015625 381.534668,611.058105 
	C381.074554,611.086060 381.003052,611.003418 380.990265,610.502930 
	C380.984650,597.006104 380.991791,584.009827 381.467590,571.009033 
	C394.957886,571.007568 407.979462,571.010559 421.001068,571.013489 
z"/>
<path fill="#579646" opacity="1.000000" stroke="none" 
	d="
M380.998932,571.013489 
	C380.991791,584.009827 380.984650,597.006104 380.954193,610.461914 
	C367.950562,610.938965 354.970215,610.956543 341.529480,610.947754 
	C341.046906,604.625854 341.111694,598.328369 340.963715,592.035889 
	C340.895874,589.149841 341.853241,587.539734 344.740112,586.555908 
	C354.107178,583.363770 362.433563,578.367920 370.196442,571.150269 
	C374.289154,570.989014 377.640472,570.992065 380.994751,570.998169 
	C380.997772,571.001282 380.998932,571.013489 380.998932,571.013489 
z"/>
<path fill="#579646" opacity="1.000000" stroke="none" 
	d="
M271.015259,570.935791 
	C275.184509,573.873840 279.207733,577.054138 283.564667,579.680847 
	C287.800446,582.234619 292.242828,584.575745 296.852081,586.335571 
	C300.095612,587.574097 301.161896,589.297913 301.051544,592.581055 
	C300.856567,598.382507 300.984619,604.194824 300.954193,610.461975 
	C287.935150,610.948181 274.939423,610.975037 261.475891,611.003418 
	C261.008148,611.004883 261.002014,610.996704 261.001160,610.524414 
	C261.000580,597.039246 261.000824,584.026367 261.001648,571.007385 
	C261.002228,571.001282 261.008240,570.995117 261.461731,570.996582 
	C264.948547,570.977295 267.981903,570.956543 271.015259,570.935791 
z"/>
<path fill="#6EBB58" opacity="1.000000" stroke="none" 
	d="
M261.001068,571.013489 
	C261.000824,584.026367 261.000580,597.039246 261.000732,610.519287 
	C247.999039,611.001038 234.996933,611.015564 221.534683,611.058105 
	C221.074554,611.086121 221.003036,611.003479 220.990265,610.502930 
	C220.984665,597.006104 220.991806,584.009827 221.467621,571.009033 
	C234.957886,571.007568 247.979477,571.010559 261.001068,571.013489 
z"/>
<path fill="#579646" opacity="1.000000" stroke="none" 
	d="
M220.998962,571.013489 
	C220.991806,584.009827 220.984665,597.006104 220.954193,610.461914 
	C207.950546,610.938965 194.970184,610.956543 181.529449,610.947754 
	C181.046143,597.930176 181.023193,584.939026 181.000641,571.480713 
	C181.001038,571.013489 181.002167,571.001221 181.472931,570.999695 
	C194.959717,570.997131 207.975723,570.996155 220.994781,570.998169 
	C220.997833,571.001221 220.998962,571.013489 220.998962,571.013489 
z"/>
<path fill="#1F0941" opacity="1.000000" stroke="none" 
	d="
M313.481750,430.433960 
	C301.915070,429.353027 291.706757,425.475098 282.015533,420.191895 
	C276.324799,417.089569 274.673431,411.411285 277.522522,406.240112 
	C280.137024,401.494690 285.957764,399.679840 291.352814,402.512573 
	C302.787750,408.516724 314.726776,412.791992 327.686249,410.242310 
	C335.388947,408.726837 342.649994,405.070282 350.227203,402.762360 
	C353.235413,401.846130 356.710602,401.222076 359.705811,401.815216 
	C363.533569,402.573181 365.766998,405.765076 366.040955,409.848145 
	C366.317688,413.972565 364.932068,417.363312 361.174377,419.477386 
	C346.498749,427.733978 330.975922,432.371765 313.481750,430.433960 
z"/>
<path fill="#050303" opacity="1.000000" stroke="none" 
	d="
M287.872040,293.002838 
	C289.242096,297.935608 287.812134,301.300629 283.336395,302.976562 
	C279.234833,304.512360 275.643768,302.671448 273.598053,297.644318 
	C271.097870,291.500366 266.946350,288.407471 260.217194,288.665802 
	C254.792480,288.874054 251.212112,291.403412 249.020966,296.309540 
	C248.158859,298.239838 247.150864,300.330414 245.622711,301.687408 
	C243.032150,303.987762 239.875137,304.215332 236.876465,302.148865 
	C233.507278,299.827026 232.974731,296.631470 234.147827,292.902740 
	C237.634506,281.820190 246.500122,274.781006 258.389343,273.715118 
	C270.506683,272.628815 280.254639,277.746948 285.720856,288.107422 
	C286.494507,289.573822 287.113983,291.121613 287.872040,293.002838 
z"/>
<path fill="#050303" opacity="1.000000" stroke="none" 
	d="
M385.303833,273.851898 
	C396.941925,275.498505 403.856873,282.266449 407.700256,292.504852 
	C409.493561,297.281982 407.790497,301.320557 403.749207,302.884338 
	C399.623260,304.480896 395.779297,302.860840 393.795502,298.026428 
	C391.234741,291.786163 387.191223,288.336304 380.163300,288.663879 
	C374.957886,288.906494 371.371399,291.234131 369.215424,295.897888 
	C368.727814,296.952698 368.386292,298.082703 367.828674,299.096222 
	C365.797791,302.787567 361.681152,304.358185 358.108154,302.871979 
	C354.435974,301.344513 352.832031,297.590729 354.030579,293.329041 
	C357.775940,280.011658 369.540222,272.569916 385.303833,273.851898 
z"/>
<path fill="#B16B5B" opacity="1.000000" stroke="none" 
	d="
M348.021790,351.836243 
	C345.345886,363.860626 335.899750,372.156494 324.871887,373.045074 
	C307.060547,374.480225 299.066193,366.007629 294.591522,354.940796 
	C292.591553,349.994293 294.157410,345.960480 298.144501,344.473083 
	C302.415619,342.879730 306.503540,344.769196 308.599976,349.486389 
	C311.040466,354.977692 314.748627,358.272064 321.173523,358.112030 
	C327.384369,357.957306 331.554169,355.534027 333.496155,349.376251 
	C334.913757,344.881226 338.412262,343.252075 342.920837,344.085724 
	C346.903076,344.822083 348.236877,347.645325 348.021790,351.836243 
z"/>
<path fill="#87C776" opacity="1.000000" stroke="none" 
	d="
M421.001648,571.007385 
	C407.979462,571.010559 394.957886,571.007568 381.467590,571.009033 
	C380.998932,571.013489 380.997772,571.001282 380.997498,570.535583 
	C380.986450,566.050171 380.975708,562.030518 380.964966,558.010803 
	C383.964081,549.804138 386.822662,541.540344 390.111816,533.451599 
	C390.612823,532.219543 393.090790,531.153687 394.684479,531.109985 
	C403.138916,530.878418 411.602966,530.997681 420.532410,530.990967 
	C421.001068,530.986511 421.002228,530.998718 421.002502,531.469849 
	C421.004639,544.959045 421.006439,557.977112 421.008240,570.995117 
	C421.008240,570.995117 421.002228,571.001282 421.001648,571.007385 
z"/>
<path fill="#87C776" opacity="1.000000" stroke="none" 
	d="
M261.001648,571.007385 
	C247.979477,571.010559 234.957886,571.007568 221.467621,571.009033 
	C220.998962,571.013489 220.997833,571.001221 220.997498,570.530090 
	C220.995346,557.040955 220.993546,544.022888 220.991745,531.004883 
	C220.991745,531.004883 220.997833,530.998901 220.998398,530.992676 
	C229.652115,530.991455 238.306198,531.071167 246.957886,530.960938 
	C249.985596,530.922363 251.405151,531.586304 252.434006,535.001831 
	C254.721466,542.595581 258.020416,549.884583 260.959717,558.116394 
	C261.010986,562.955017 261.009613,566.975037 261.008240,570.995117 
	C261.008240,570.995117 261.002228,571.001282 261.001648,571.007385 
z"/>
<path fill="#75A967" opacity="1.000000" stroke="none" 
	d="
M380.684082,558.186218 
	C380.975708,562.030518 380.986450,566.050171 380.994476,570.532471 
	C377.640472,570.992065 374.289154,570.989014 370.483276,570.976318 
	C373.486877,566.764954 376.945038,562.563293 380.684082,558.186218 
z"/>
<path fill="#75A967" opacity="1.000000" stroke="none" 
	d="
M261.461731,570.996582 
	C261.009613,566.975037 261.010986,562.955017 261.023743,558.473389 
	C264.317230,562.098267 267.599365,566.184814 270.948364,570.603516 
	C267.981903,570.956543 264.948547,570.977295 261.461731,570.996582 
z"/>
<path fill="#75A967" opacity="1.000000" stroke="none" 
	d="
M421.476074,570.996582 
	C421.006439,557.977112 421.004639,544.959045 421.005524,531.472961 
	C434.024261,531.003845 447.040253,531.002869 460.524017,531.003357 
	C460.993591,544.022888 460.995392,557.040955 460.994476,570.527039 
	C447.975800,570.996094 434.959839,570.997070 421.476074,570.996582 
z"/>
<path fill="#75A967" opacity="1.000000" stroke="none" 
	d="
M220.523926,531.003418 
	C220.993546,544.022888 220.995346,557.040955 220.994446,570.527039 
	C207.975723,570.996155 194.959717,570.997131 181.475983,570.996643 
	C181.006454,557.977112 181.004654,544.959045 181.005554,531.472961 
	C194.024216,531.003906 207.040161,531.002869 220.523926,531.003418 
z"/>
</svg>